<svg xmlns="http://www.w3.org/2000/svg" width="48.441" height="50.302" viewBox="0 0 48.441 50.302">
  <path id="Union_2" data-name="Union 2" d="M16.158,37.234h0l-.111-.065h0L.084,27.794h0a.064.064,0,0,1-.022-.049L0,9.152H0a.07.07,0,0,1,.007-.021A.067.067,0,0,1,.046,9.1L16.151.009a.063.063,0,0,1,.064,0h0L32.2,9.19a.064.064,0,0,1,.029.037h0v.011a.054.054,0,0,1,0,.014L32.257,27.8a.064.064,0,0,1-.038.059l-.008,0h0L16.158,37.236Zm-.028-.2,9.086-15.222-18.4-.027Zm.162-.021,15.791-9.223-6.73-5.958Zm-.361-.056L6.682,21.812.234,27.733Zm16.2-9.3L32.1,9.5,25.418,21.714ZM.191,27.6l6.423-5.9-.043-.071,0,0L.13,9.423ZM25.235,21.68,16.128,8.023l-9.31,13.63Zm.1-.082L32.063,9.3,16.271,8.006ZM.168,9.218,6.7,21.593,15.976,8.016Zm31.72-.06L16.247.174l-.062,7.7ZM.35,9.076,16.056,7.882,16.117.174Z" transform="translate(0.923 17.062) rotate(-30)" fill="none" stroke="silver" stroke-width="1"/>
</svg>
