<svg xmlns="http://www.w3.org/2000/svg" width="47.806" height="49.698" viewBox="0 0 47.806 49.698">
  <path id="Union_13" data-name="Union 13" d="M15.908,36.817h0l-.109-.064h0L.083,27.482h0a.063.063,0,0,1-.022-.048L0,9.049H0a.07.07,0,0,1,.007-.021A.066.066,0,0,1,.045,9L15.9.008a.062.062,0,0,1,.063,0h0L31.7,9.087a.063.063,0,0,1,.029.036h0v.011a.054.054,0,0,1,0,.014l.024,18.338a.064.064,0,0,1-.037.058l-.008,0h0L15.909,36.818Zm-.028-.2,8.946-15.051L6.709,21.537Zm.16-.021,15.547-9.119-6.626-5.891Zm-.355-.056L6.579,21.568.231,27.422Zm15.947-9.194L31.608,9.389,25.026,21.471ZM.188,27.289l6.324-5.832-.043-.07,0,0L.128,9.317Zm24.658-5.853-8.967-13.5L6.712,21.411Zm.1-.082L31.569,9.2,16.02,7.916ZM.165,9.115,6.6,21.351,15.73,7.927Zm31.23-.06L16,.173l-.061,7.61ZM.345,8.974,15.808,7.793,15.869.172Z" transform="translate(0.924 16.814) rotate(-30)" fill="none" stroke="#c92f32" stroke-width="1"/>
</svg>
