<svg xmlns="http://www.w3.org/2000/svg" width="245.586" height="282.307" viewBox="0 0 245.586 282.307">
  <path id="Union_12" data-name="Union 12" d="M118.342,272.225h0l-.811-.476v0L.616,203.206l.006-.008a.468.468,0,0,1-.164-.356L0,66.911H.009a.514.514,0,0,1,.053-.156.49.49,0,0,1,.274-.219L118.293.063a.462.462,0,0,1,.47,0l0,0,117.08,67.124a.468.468,0,0,1,.216.27h.017v.08a.4.4,0,0,1,0,.1l.18,135.591a.471.471,0,0,1-.278.428.309.309,0,0,1-.057.018l0,.006-117.576,68.55Zm-.2-1.493,66.551-111.29-134.779-.194Zm1.189-.153,115.655-67.428-49.29-43.557Zm-2.641-.412L48.943,159.474,1.715,202.763Zm118.626-67.978-.178-132.767-48.968,89.336ZM1.4,201.778l47.047-43.12-.316-.516.034-.019L.952,68.892ZM184.828,158.5l-66.7-99.843L49.934,158.312Zm.729-.6L234.838,68,119.172,58.531ZM1.23,67.395l47.862,90.476L117.013,58.61Zm232.323-.441L118.994,1.276l-.453,56.266Zm-230.988-.6,115.03-8.73.453-56.352Z" transform="translate(4.656 4.813)" fill="none" stroke="#c92f32" stroke-width="7"/>
</svg>
