<svg xmlns="http://www.w3.org/2000/svg" width="24.131" height="24.175" viewBox="0 0 24.131 24.175">
  <path id="Icon_feather-phone" data-name="Icon feather-phone" d="M25.3,19.6v3.338a2.225,2.225,0,0,1-2.426,2.225,22.019,22.019,0,0,1-9.6-3.416,21.7,21.7,0,0,1-6.676-6.676A22.019,22.019,0,0,1,3.177,5.426,2.225,2.225,0,0,1,5.391,3H8.729a2.225,2.225,0,0,1,2.225,1.914,14.286,14.286,0,0,0,.779,3.127,2.225,2.225,0,0,1-.5,2.348L9.819,11.8A17.8,17.8,0,0,0,16.5,18.477l1.413-1.413a2.225,2.225,0,0,1,2.348-.5,14.286,14.286,0,0,0,3.127.779A2.225,2.225,0,0,1,25.3,19.6Z" transform="translate(-2.167 -2)" fill="none" stroke="#000" stroke-linecap="round" stroke-linejoin="round" stroke-width="2"/>
</svg>
