<svg id="Group_13" data-name="Group 13" xmlns="http://www.w3.org/2000/svg" xmlns:xlink="http://www.w3.org/1999/xlink" width="57.847" height="74.77" viewBox="0 0 57.847 74.77">
  <defs>
    <clipPath id="clip-path">
      <rect id="Rectangle_48" data-name="Rectangle 48" width="57.847" height="74.77" fill="rgba(0,0,0,0)"/>
    </clipPath>
  </defs>
  <g id="Group_12" data-name="Group 12">
    <g id="Group_11" data-name="Group 11" clip-path="url(#clip-path)">
      <path id="Path_43" data-name="Path 43" d="M52.723,3.81c-.122-.006-.245-.01-.368-.01H10.628c-.123,0-.246,0-.368.01A7.316,7.316,0,0,1,3.8,11.02V59.848a6.781,6.781,0,0,0,6.829,6.731h5.435c1.343,4.808,7.735,8.452,15.424,8.452s14.081-3.644,15.424-8.452h5.444a6.781,6.781,0,0,0,6.829-6.731V11.02A7.316,7.316,0,0,1,52.723,3.81Z" transform="translate(-2.568 -2.569)" fill="#fff" stroke="#000" stroke-miterlimit="10" stroke-width="2"/>
      <path id="Path_44" data-name="Path 44" d="M56.735,16.146H21.658A7.438,7.438,0,0,1,15.2,23.553V68a3.818,3.818,0,0,0,3.8,3.839H59.4A3.818,3.818,0,0,0,63.2,68V23.553a7.438,7.438,0,0,1-6.462-7.407" transform="translate(-10.273 -10.915)" fill="none"/>
      <path id="Path_45" data-name="Path 45" d="M56.735,16.146H21.658A7.438,7.438,0,0,1,15.2,23.553V68a3.818,3.818,0,0,0,3.8,3.839H27.21a9.107,9.107,0,0,1,2.913-5.187,13.358,13.358,0,0,1,9.055-3.158c2.339,0,6.05.532,8.485,2.587a8.386,8.386,0,0,1,3.721,5.758H59.4A3.818,3.818,0,0,0,63.2,68V23.553A7.438,7.438,0,0,1,56.735,16.146Z" transform="translate(-10.273 -10.915)" fill="none" stroke="#992d2f" stroke-miterlimit="10" stroke-width="1"/>
      <path id="Path_46" data-name="Path 46" d="M76.391,171.263c0,4.986-5.407,9.028-12.077,9.028s-12.077-4.042-12.077-9.028,5.407-9.028,12.077-9.028,12.077,4.042,12.077,9.028" transform="translate(-35.314 -109.675)" fill="none"/>
      <path id="Path_59" data-name="Path 59" d="M12.077,0c6.67,0,12.077,3.871,12.077,8.647,0,2.517-1.5,4.782-4.148,6.522a14.785,14.785,0,0,1-7.929,2.125C5.407,17.294,0,13.423,0,8.647S5.407,0,12.077,0Z" transform="translate(16.923 52.56)" fill="none" stroke="#992d2f" stroke-width="1"/>
    </g>
  </g>
  <text id="DEV" transform="translate(20.424 17.558)" fill="#515151" font-size="9" font-family="Roboto-Regular, Roboto"><tspan x="0" y="0">DEV</tspan></text>
  <text id="YP" transform="translate(11.423 46.058)" font-size="30" font-family="Roboto-Regular, Roboto" letter-spacing="-0.05em"><tspan x="0" y="0">YP</tspan></text>
  <text id="_5" data-name="+5" transform="translate(22.267 65.058)" font-size="11" font-family="Roboto-Regular, Roboto"><tspan x="0" y="0">+5</tspan></text>
</svg>
